<?xml version="1.0" encoding="UTF-8"?>
<svg width="72px" height="34px" viewBox="0 0 72 34" version="1.1" xmlns="http://www.w3.org/2000/svg" xmlns:xlink="http://www.w3.org/1999/xlink">
    <!-- Generator: Sketch 55.1 (78136) - https://sketchapp.com -->
    <title>toogethr events-logo copy</title>
    <desc>Created with Sketch.</desc>
    <g id="🔸-Assets/partners" stroke="none" stroke-width="1" fill="none" fill-rule="evenodd">
        <g id="images/partners/toogethr" transform="translate(-74.000000, -43.000000)" fill="#1D1C1A">
            <g id="toogethr-events-logo-copy" transform="translate(74.000000, 43.000000)">
                <path d="M15.5423473,30.5852029 C14.3448527,31.6649605 12.6022154,33.4527815 8.57258901,33.4527815 C4.54414945,33.4527815 0.623314286,30.9090124 0.623314286,25.6150211 C0.623314286,20.3206372 4.54414945,17.9440716 8.68138022,17.9440716 C12.8209846,17.9440716 14.5628308,20.1043717 14.9983912,20.5365102 L11.7314901,23.2376704 C11.4047209,22.9134684 10.4244132,21.9416473 8.68138022,21.9416473 C6.93953407,21.9416473 5.56797363,23.2376704 5.56797363,25.6150211 C5.56797363,27.9908017 6.93953407,29.2880023 8.68138022,29.2880023 C10.4244132,29.2880023 10.7511824,28.7483198 10.7511824,28.7483198 L10.7511824,27.6669922 L8.4637978,27.6669922 L8.4637978,24.0583804 L15.5423473,24.0583804 L15.5423473,30.5852029 Z" id="Fill-1"></path>
                <polygon id="Fill-3" points="27.9078725 33.0693518 17.0180703 33.0693518 17.0180703 18.1603763 27.6898945 18.1603763 27.6898945 22.006841 21.9180264 22.006841 21.9180264 23.6266736 27.3623341 23.6266736 27.3623341 27.4531209 21.9180264 27.4531209 21.9180264 29.1797126 27.9078725 29.1797126"></polygon>
                <polygon id="Fill-5" points="41.1637055 21.9625674 37.6115736 21.9625674 37.6115736 33.0694303 32.6910462 33.0694303 32.6910462 21.9625674 29.1630462 21.9625674 29.1630462 18.1600623 41.1637055 18.1600623"></polygon>
                <polygon id="Fill-7" points="56.5776 33.0693518 51.6550945 33.0693518 51.6550945 27.5594874 47.5601934 27.5594874 47.5601934 33.0693518 42.6380835 33.0693518 42.6380835 18.1603763 47.5601934 18.1603763 47.5601934 23.5611267 51.6550945 23.5611267 51.6550945 18.1603763 56.5776 18.1603763"></polygon>
                <path d="M65.2816879,22.1139532 C65.0645011,21.9420398 64.7369407,21.8341033 64.1941714,21.8341033 L62.9503912,21.8341033 L62.9503912,24.4261495 L64.1941714,24.4261495 C64.7369407,24.4261495 65.0866549,24.318213 65.2816879,24.1674944 C65.5210286,23.9944035 65.8268308,23.7785304 65.8268308,23.1297339 C65.8268308,22.4817224 65.5004571,22.2654569 65.2816879,22.1139532 L65.2816879,22.1139532 Z M71.663578,33.0693126 L66.0001055,33.0693126 L63.6055121,28.0999157 L62.9729407,28.0999157 L62.9729407,33.0693126 L58.0508308,33.0693126 L58.0508308,18.1603371 L64.5850286,18.1603371 C66.4368527,18.1603371 67.8515341,18.4837541 68.9410286,19.2404872 C70.0297319,19.9968277 70.7928527,21.2932433 70.7928527,22.9138609 C70.7928527,25.9392231 68.9410286,27.0193732 68.2878857,27.4091221 L71.663578,33.0693126 Z" id="Fill-9"></path>
                <polygon id="Fill-11" points="12.188967 4.23389784 8.63881319 4.23389784 8.63881319 15.3415457 3.71591209 15.3415457 3.71591209 4.23389784 0.188703297 4.23389784 0.188703297 0.431000289 12.188967 0.431000289"></polygon>
                <path d="M20.1545802,11.0630996 C18.3866242,11.0630996 16.9525582,9.64187013 16.9525582,7.88662626 C16.9525582,6.13216739 18.3866242,4.70936797 20.1545802,4.70936797 C21.9233275,4.70936797 23.3569978,6.13216739 23.3569978,7.88662626 C23.3569978,9.64187013 21.9233275,11.0630996 20.1545802,11.0630996 M20.1545802,0.0331659457 C15.7843385,0.0331659457 12.2385363,3.54914863 12.2385363,7.88662626 C12.2385363,12.2244964 15.7843385,15.7404791 20.1545802,15.7404791 C24.5268,15.7404791 28.0706242,12.2244964 28.0706242,7.88662626 C28.0706242,3.54914863 24.5268,0.0331659457 20.1545802,0.0331659457" id="Fill-13"></path>
                <path d="M32.2655341,11.0630996 C30.4979736,11.0630996 29.0635121,9.64187013 29.0635121,7.88662626 C29.0635121,6.13216739 30.4979736,4.70936797 32.2655341,4.70936797 C34.0334901,4.70936797 35.4683473,6.13216739 35.4683473,7.88662626 C35.4683473,9.64187013 34.0334901,11.0630996 32.2655341,11.0630996 M32.2655341,0.0331659457 C27.8941055,0.0331659457 24.3494901,3.54914863 24.3494901,7.88662626 C24.3494901,12.2244964 27.8941055,15.7404791 32.2655341,15.7404791 C36.6393363,15.7404791 40.1823692,12.2244964 40.1823692,7.88662626 C40.1823692,3.54914863 36.6393363,0.0331659457 32.2655341,0.0331659457" id="Fill-15"></path>
            </g>
        </g>
    </g>
</svg>